<svg width="17" height="20" viewBox="0 0 17 20" fill="none" xmlns="http://www.w3.org/2000/svg">
<path fill-rule="evenodd" clip-rule="evenodd" d="M2.5001 8.80039V6.40039C2.5001 3.08668 5.18639 0.400391 8.5001 0.400391C11.8138 0.400391 14.5001 3.08668 14.5001 6.40039V8.80039C15.8256 8.80039 16.9001 9.87491 16.9001 11.2004V17.2004C16.9001 18.5259 15.8256 19.6004 14.5001 19.6004H2.5001C1.17461 19.6004 0.100098 18.5259 0.100098 17.2004V11.2004C0.100098 9.87491 1.17461 8.80039 2.5001 8.80039ZM12.1001 6.40039V8.80039H4.9001V6.40039C4.9001 4.41217 6.51187 2.80039 8.5001 2.80039C10.4883 2.80039 12.1001 4.41217 12.1001 6.40039Z" fill="#0361F0"/>
</svg>
