<svg fill="none" height="88" viewBox="0 0 152 88" width="152" xmlns="http://www.w3.org/2000/svg">
					<g filter="url(#filter0_d_4784_205104)">
						<path
							d="M76.0925 51.636H75.9078C63.9645 51.6052 55.9612 49.1067 54.299 47.5644C52.5445 45.9912 50.2358 37.8171 50.2358 25.818C50.2358 13.819 52.5445 5.6448 54.299 4.07166C55.9612 2.49852 63.9645 0.0308459 75.9078 0H76.0925C88.0357 0.0308459 96.039 2.52936 97.7012 4.07166C99.4557 5.6448 101.764 13.819 101.764 25.818C101.764 37.8171 99.4557 45.9912 97.7012 47.5644C96.039 49.1375 88.0357 51.636 76.0925 51.636Z"
							fill="white" />
					</g>
					<path
						d="M87.8818 27.3605L86.8968 15.2998H80.956C80.956 15.2998 76.431 24.5844 76.0309 25.8491H75.9693L71.1982 15.2998H65.2573L64.2723 25.7566L63.4412 36.3675H67.0734C68.6433 36.3675 69.2589 35.6889 69.4128 34.0233C69.4128 34.0233 70.0284 24.3068 69.9361 22.8879H69.9977L70.1824 23.5357C70.4286 24.3993 73.8146 32.6969 73.8146 32.6969H78.2779C78.2779 32.6969 81.6639 24.5227 82.0949 22.8879H82.1564L82.6797 34.0233C82.8029 35.6889 83.4493 36.3675 84.9884 36.3675H88.6206L87.8818 27.3605Z"
						fill="#0361F0" />
					<path
						d="M28.7194 68.3854C30.3816 66.874 32.4132 66.1337 34.8449 66.1337C37.3075 66.1337 39.3391 66.874 41.0013 68.3854C42.6635 69.866 43.4946 71.8093 43.4946 74.1844C43.4946 76.5287 42.6635 78.472 41.0013 79.9526C39.3698 81.4024 37.3382 82.1427 34.8757 82.1427C32.4132 82.1427 30.3816 81.4024 28.7194 79.9526C27.0879 78.472 26.2568 76.5287 26.2568 74.1844C26.2568 71.8093 27.0879 69.866 28.7194 68.3854ZM34.9065 77.8551C36.8457 77.8551 38.3848 76.4053 38.3848 74.1844C38.3848 71.9327 36.8457 70.4212 34.9065 70.4212C32.9672 70.4212 31.4282 71.9327 31.4282 74.1844C31.4282 76.4053 32.9672 77.8551 34.9065 77.8551Z"
						fill="white" />
					<path
						d="M55.13 66.1337C52.9753 66.1337 51.3439 67.0282 50.2973 68.7864H50.2358L50.2665 68.4163V68.2003C50.2665 67.1207 49.5278 66.473 48.1426 66.473H43.5869V70.7914H44.7258C45.1876 70.7914 45.3722 71.0073 45.3722 71.4392V81.7725H50.482V74.9864C50.482 74.2153 50.5744 73.5367 50.7898 72.9815C51.2823 71.5317 52.2981 70.7914 53.8064 70.7914C54.9454 70.7914 55.4994 71.47 55.4994 72.7964V79.6133C55.4994 81.1248 56.1458 81.7725 57.6541 81.7725H60.6092V71.871C60.6092 68.0153 58.7623 66.1337 55.13 66.1337Z"
						fill="white" />
					<path
						d="M64.3029 60.5505V64.7147H68.6124V60.5505H64.3029ZM66.8578 66.473H62.1174V70.7914H63.2564C63.6873 70.7914 63.9028 71.0073 63.9028 71.4391V79.6133C63.9028 81.1248 64.5492 81.7725 66.0575 81.7725H69.0125V68.6322C69.0433 67.1207 68.3969 66.473 66.8578 66.473Z"
						fill="white" />
					<path
						d="M73.0141 68.4163C74.4608 66.9048 76.4001 66.1337 78.801 66.1337C80.9865 66.1337 82.7103 66.8123 83.9724 68.2003C85.2344 69.5576 85.8808 71.3466 85.8808 73.5058C85.8808 73.876 85.8501 74.4004 85.7577 75.1098H76.123C76.4924 76.8989 77.9392 77.8551 79.6937 77.8551C80.9558 77.8551 82.3717 77.3616 83.9108 76.3128L85.8193 79.9218C84.1878 81.3098 81.6637 82.1427 79.2936 82.1427C76.7079 82.1427 74.6763 81.3407 73.168 79.7675C71.6597 78.1944 70.9209 76.282 70.9209 74.1227C70.8594 71.8402 71.5673 69.9277 73.0141 68.4163ZM80.7711 72.1795C80.7711 70.8839 79.94 69.8969 78.6779 69.8969C77.3851 69.8969 76.554 70.668 76.2154 72.1795H80.7711Z"
						fill="white" />
					<path
						d="M87.697 66.7506H90.375V68.077C90.375 68.6939 90.2827 69.2183 90.2827 69.2183H90.3443C91.2985 67.3984 93.2069 66.3805 95.3925 66.3805C99.4556 66.3805 101.98 69.5885 101.98 74.2462C101.98 79.0273 99.117 82.1119 95.177 82.1119C93.2685 82.1119 91.5447 81.1557 90.5289 79.5517H90.4674C90.4674 79.5517 90.5905 80.0761 90.5905 80.8472V87.695H87.7278V66.7506H87.697ZM94.7153 79.6442C97.0855 79.6442 99.0555 77.7009 99.0555 74.3079C99.0555 71.0382 97.3009 68.9407 94.8076 68.9407C92.5605 68.9407 90.4674 70.5447 90.4674 74.3387C90.4982 76.9915 91.9757 79.6442 94.7153 79.6442Z"
						fill="white" />
					<path
						d="M111.43 66.3805C115.924 66.3805 119.525 69.681 119.525 74.2154C119.525 78.7806 115.893 82.1119 111.461 82.1119C106.966 82.1119 103.365 78.7806 103.365 74.2154C103.365 69.681 106.966 66.3805 111.43 66.3805ZM111.461 79.6443C114.293 79.6443 116.632 77.3925 116.632 74.2462C116.632 71.1308 114.293 68.9099 111.461 68.9099C108.598 68.9099 106.289 71.1308 106.289 74.2462C106.289 77.3925 108.598 79.6443 111.461 79.6443Z"
						fill="white" />
					<path
						d="M121.742 60.7974H124.697V63.6969H121.742V60.7974ZM121.803 66.7506H124.666V81.8034H121.803V66.7506Z"
						fill="white" />
					<path
						d="M127.929 66.7506H130.73V68.7865C130.73 69.4034 130.637 69.9278 130.637 69.9278H130.699C131.253 68.6322 133.1 66.3805 136.394 66.3805C139.934 66.3805 141.534 68.3238 141.534 72.1487V81.7726H138.672V72.7964C138.672 70.6989 138.271 69.0332 135.84 69.0332C132.915 69.0332 130.822 71.4701 130.822 74.5546V81.7726H127.959V66.7506H127.929Z"
						fill="white" />
					<path
						d="M145.228 69.2491H143.258V66.9048H145.29V62.6172H148.122V66.9048H151.754V69.2491H148.122V75.9735C148.122 78.9655 150.215 79.3665 151.323 79.3665C151.538 79.3665 151.723 79.3665 152 79.3048V81.865C151.754 81.8959 151.446 81.9576 150.984 81.9576C149.045 81.9576 145.228 81.3406 145.228 76.3128V69.2491Z"
						fill="white" />
					<path
						d="M24.6561 72.7039L23.6711 60.5507H17.6687C17.6687 60.5507 13.0822 69.9278 12.7128 71.1925H12.6513L7.84933 60.5507H1.81612L0.831106 71.1L0 81.7727H3.66302C5.23289 81.7727 5.8793 81.094 6.00243 79.4284C6.00243 79.4284 6.61806 69.6194 6.52572 68.2004H6.58728L6.77197 68.8482C7.01823 69.7119 10.435 78.0711 10.435 78.0711H14.9291C14.9291 78.0711 18.3459 69.8353 18.7768 68.2004H18.8384L19.3617 79.4284C19.4848 81.094 20.1312 81.7727 21.7011 81.7727H25.3641L24.6561 72.7039Z"
						fill="white" />
					<defs>
						<filter color-interpolation-filters="sRGB" filterUnits="userSpaceOnUse" height="69.876"
							id="filter0_d_4784_205104" width="68.9" x="41.5501" y="0">
							<feFlood flood-opacity="0" result="BackgroundImageFix" />
							<feColorMatrix in="SourceAlpha" result="hardAlpha" type="matrix"
								values="0 0 0 0 0 0 0 0 0 0 0 0 0 0 0 0 0 0 127 0" />
							<feOffset dy="9.55429" />
							<feGaussianBlur stdDeviation="4.34286" />
							<feColorMatrix type="matrix" values="0 0 0 0 0 0 0 0 0 0.3173 0 0 0 0 0.8 0 0 0 0.5 0" />
							<feBlend in2="BackgroundImageFix" mode="normal" result="effect1_dropShadow_4784_205104" />
							<feBlend in="SourceGraphic" in2="effect1_dropShadow_4784_205104" mode="normal"
								result="shape" />
						</filter>
					</defs>
				</svg>